<svg xmlns="http://www.w3.org/2000/svg" version="1.1" xmlns:xlink="http://www.w3.org/1999/xlink" xmlns:svgjs="http://svgjs.dev/svgjs" width="500" height="500" viewBox="0 0 1000 1000"><rect width="1000" height="1000" fill="#282634"></rect><g transform="matrix(0.7,0,0,0.7,149.57575757575756,416.740251366329)"><svg viewBox="0 0 396 94" data-background-color="#282634" preserveAspectRatio="xMidYMid meet" height="237" width="1000" xmlns="http://www.w3.org/2000/svg" xmlns:xlink="http://www.w3.org/1999/xlink"><g id="tight-bounds" transform="matrix(1,0,0,1,0.2400000000000091,0.17550555494318587)"><svg viewBox="0 0 395.52 93.6489888901136" height="93.6489888901136" width="395.52"><g><svg viewBox="0 0 537.2478899246331 127.20651717938144" height="93.6489888901136" width="395.52"><g><rect width="5.205216937392826" height="127.20651717938144" x="122.8964506380444" y="0" fill="#ff4057" opacity="1" stroke-width="0" stroke="transparent" fill-opacity="1" class="rect-s$-0" data-fill-palette-color="primary" rx="1%" id="s$-0" data-palette-color="#ff4057"></rect></g><g transform="matrix(1,0,0,1,141.7278899246331,0.3164341223367657)"><svg viewBox="0 0 395.52 126.5736489347079" height="126.5736489347079" width="395.52"><g id="textblocktransform"><svg viewBox="0 0 395.52 126.5736489347079" height="126.5736489347079" width="395.52" id="textblock"><g><svg viewBox="0 0 395.52 126.5736489347079" height="126.5736489347079" width="395.52"><g transform="matrix(1,0,0,1,0,0)"><svg width="395.52" viewBox="3 -30.740000000000002 213.13999999999996 65.21000000000001" height="126.5736489347079" data-palette-color="#ff4057"><svg></svg><svg></svg><g class="undefined-text-0" data-fill-palette-color="primary" id="text-0"><path d="M5.62 0.07c-1.747 0-2.62-0.453-2.62-1.36v0-27.79c0-0.473 0.213-0.827 0.64-1.06 0.42-0.233 1.08-0.35 1.98-0.35v0h2.29c1.387 0 2.29 0.397 2.71 1.19v0l7.3 12.97 0.37 0.63 0.36-0.76 7.35-12.84c0.44-0.793 1.353-1.19 2.74-1.19v0h2.27c1.74 0 2.61 0.47 2.61 1.41v0 27.79c0 0.907-0.87 1.36-2.61 1.36v0h-1.27c-1.747 0-2.62-0.453-2.62-1.36v0-18l-0.17-0.05-6.3 11.26c-0.373 0.553-0.95 0.83-1.73 0.83v0h-1.24c-0.407 0-0.75-0.07-1.03-0.21-0.273-0.14-0.51-0.347-0.71-0.62v0l-6.32-11.26-0.17 0.05v18c0 0.907-0.863 1.36-2.59 1.36v0zM41.92 0.12c-0.88 0-1.537-0.12-1.97-0.36-0.427-0.247-0.64-0.597-0.64-1.05v0-27.79c0-0.96 0.87-1.44 2.61-1.44v0h1.51c0.9 0 1.557 0.123 1.97 0.37 0.413 0.24 0.62 0.597 0.62 1.07v0 27.79c0 0.94-0.863 1.41-2.59 1.41v0zM65.06 0.37c-4.88 0-8.48-1.27-10.8-3.81-2.32-2.54-3.48-6.487-3.48-11.84v0c0-10.307 4.833-15.46 14.5-15.46v0c1.32 0 2.687 0.13 4.1 0.39 1.42 0.26 2.607 0.623 3.56 1.09 0.953 0.467 1.43 0.983 1.43 1.55v0c0 0.407-0.163 0.94-0.49 1.6-0.327 0.66-0.713 1.24-1.16 1.74-0.447 0.507-0.843 0.76-1.19 0.76v0c-0.08 0-0.3-0.08-0.66-0.24v0c-0.78-0.327-1.597-0.6-2.45-0.82-0.853-0.22-1.94-0.33-3.26-0.33v0c-2.553 0-4.447 0.81-5.68 2.43-1.227 1.62-1.84 4.067-1.84 7.34v0c0 3.267 0.62 5.73 1.86 7.39 1.233 1.66 3.087 2.49 5.56 2.49v0c1.287 0 2.407-0.13 3.36-0.39 0.953-0.26 1.887-0.593 2.8-1v0c0.047-0.013 0.193-0.073 0.44-0.18 0.24-0.107 0.417-0.16 0.53-0.16v0c0.427 0 0.833 0.247 1.22 0.74 0.393 0.5 0.713 1.063 0.96 1.69 0.24 0.627 0.36 1.077 0.36 1.35v0c0 0.8-0.533 1.477-1.6 2.03-1.067 0.553-2.353 0.963-3.86 1.23-1.5 0.273-2.903 0.41-4.21 0.41zM81.96 0.07c-1.727 0-2.59-0.453-2.59-1.36v0-27.79c0-0.473 0.207-0.827 0.62-1.06 0.42-0.233 1.077-0.35 1.97-0.35v0h1.54c0.893 0 1.547 0.117 1.96 0.35 0.413 0.233 0.62 0.587 0.62 1.06v0 10.72h11.72v-10.72c0-0.473 0.213-0.827 0.64-1.06 0.42-0.233 1.08-0.35 1.98-0.35v0h1.51c1.74 0 2.61 0.47 2.61 1.41v0 27.79c0 0.907-0.87 1.36-2.61 1.36v0h-1.51c-1.747 0-2.62-0.453-2.62-1.36v0-11.33h-11.72v11.33c0 0.907-0.86 1.36-2.58 1.36v0zM110.18 0.07c-1.773 0-2.66-0.317-2.66-0.95v0c0-0.18 0.057-0.44 0.17-0.78v0l9.57-27.91c0.227-0.613 1.05-0.92 2.47-0.92v0h2.24c1.42 0 2.243 0.307 2.47 0.92v0l9.57 27.91c0.08 0.327 0.12 0.587 0.12 0.78v0c0 0.327-0.173 0.567-0.52 0.72-0.353 0.153-0.903 0.23-1.65 0.23v0h-1.91c-0.68 0-1.227-0.067-1.64-0.2-0.42-0.14-0.677-0.373-0.77-0.7v0l-1.76-5.3h-10.23l-1.76 5.3c-0.18 0.6-0.847 0.9-2 0.9v0zM117.5-11.87h6.52l-2.46-7.71c-0.147-0.393-0.273-0.84-0.38-1.34-0.107-0.507-0.2-0.987-0.28-1.44v0h-0.17l-0.1 0.53c-0.16 0.96-0.347 1.71-0.56 2.25v0zM138.87 0c-0.607 0-1.047-0.14-1.32-0.42-0.28-0.273-0.42-0.71-0.42-1.31v0-26.93c0-0.607 0.14-1.043 0.42-1.31 0.273-0.267 0.713-0.4 1.32-0.4v0h15.89c0.453 0 0.783 0.17 0.99 0.51 0.2 0.34 0.3 0.893 0.3 1.66v0 1.32c0 0.767-0.1 1.32-0.3 1.66-0.207 0.34-0.537 0.51-0.99 0.51v0h-10.94v6.3h9.77c0.453 0 0.783 0.17 0.99 0.51 0.2 0.347 0.3 0.9 0.3 1.66v0 1.35c0 0.76-0.1 1.313-0.3 1.66-0.207 0.34-0.537 0.51-0.99 0.51v0h-9.77v7.03h10.97c0.453 0 0.78 0.17 0.98 0.51 0.207 0.347 0.31 0.893 0.31 1.64v0 1.37c0 0.76-0.103 1.313-0.31 1.66-0.2 0.34-0.527 0.51-0.98 0.51v0zM162.57 0c-0.6 0-1.04-0.14-1.32-0.42-0.273-0.273-0.41-0.71-0.41-1.31v0-27.35c0-0.473 0.21-0.827 0.63-1.06 0.427-0.233 1.087-0.35 1.98-0.35v0h1.47c0.893 0 1.55 0.117 1.97 0.35 0.427 0.233 0.64 0.587 0.64 1.06v0 23.39h9.67c0.453 0 0.783 0.17 0.99 0.51 0.2 0.347 0.3 0.893 0.3 1.64v0 1.37c0 0.76-0.1 1.313-0.3 1.66-0.207 0.34-0.537 0.51-0.99 0.51v0z" fill="#ff4057" fill-rule="nonzero" stroke="none" stroke-width="1" stroke-linecap="butt" stroke-linejoin="miter" stroke-miterlimit="10" stroke-dasharray="" stroke-dashoffset="0" font-family="none" font-weight="none" font-size="none" text-anchor="none" style="mix-blend-mode: normal" data-fill-palette-color="primary" opacity="1"></path><path transform="translate(0,34.1)" d="M4.74 0c-0.607 0-1.047-0.14-1.32-0.42-0.28-0.273-0.42-0.71-0.42-1.31v0-26.93c0-0.607 0.14-1.043 0.42-1.31 0.273-0.267 0.713-0.4 1.32-0.4v0h8.59c3.513 0 6.1 0.68 7.76 2.04 1.66 1.36 2.49 3.233 2.49 5.62v0c0 1.433-0.447 2.753-1.34 3.96-0.893 1.207-2.017 2.087-3.37 2.64v0l0.05 0.17c1.14 0.227 2.153 0.69 3.04 1.39 0.887 0.7 1.58 1.553 2.08 2.56 0.493 1.013 0.74 2.073 0.74 3.18v0c0 2.847-0.903 5.027-2.71 6.54-1.807 1.513-4.517 2.27-8.13 2.27v0zM9.69-18.29h2.98c1.273 0 2.263-0.303 2.97-0.91 0.707-0.613 1.06-1.39 1.06-2.33v0c0-2.153-1.32-3.23-3.96-3.23v0h-3.05zM9.69-5.69h4.25c1.253 0 2.23-0.303 2.93-0.91 0.7-0.613 1.05-1.48 1.05-2.6v0c0-1.107-0.403-1.947-1.21-2.52-0.807-0.567-1.967-0.85-3.48-0.85v0h-3.54zM41.6 0.37c-2.96 0-5.477-0.603-7.55-1.81-2.08-1.207-3.66-2.97-4.74-5.29-1.08-2.32-1.62-5.147-1.62-8.48v0c0-3.32 0.54-6.14 1.62-8.46 1.08-2.32 2.66-4.077 4.74-5.27 2.073-1.2 4.59-1.8 7.55-1.8v0c2.98 0 5.507 0.6 7.58 1.8 2.073 1.193 3.65 2.95 4.73 5.27 1.073 2.32 1.61 5.14 1.61 8.46v0c0 3.333-0.537 6.16-1.61 8.48-1.08 2.32-2.657 4.083-4.73 5.29-2.073 1.207-4.6 1.81-7.58 1.81zM41.6-5.35c2.327 0 4.087-0.84 5.28-2.52 1.187-1.687 1.78-4.133 1.78-7.34v0c0-3.207-0.593-5.64-1.78-7.3-1.193-1.66-2.953-2.49-5.28-2.49v0c-2.313 0-4.067 0.833-5.26 2.5-1.193 1.667-1.79 4.097-1.79 7.29v0c0 3.207 0.6 5.653 1.8 7.34 1.207 1.68 2.957 2.52 5.25 2.52zM62.82 0.12c-0.88 0-1.537-0.12-1.97-0.36-0.427-0.247-0.64-0.597-0.64-1.05v0-27.79c0-0.96 0.87-1.44 2.61-1.44v0h1.51c0.893 0 1.55 0.123 1.97 0.37 0.413 0.24 0.62 0.597 0.62 1.07v0 27.79c0 0.94-0.863 1.41-2.59 1.41v0zM80.88 0.07c-1.74 0-2.61-0.453-2.61-1.36v0-23.42h-6.88c-0.46 0-0.79-0.17-0.99-0.51-0.207-0.34-0.31-0.893-0.31-1.66v0-1.32c0-0.767 0.103-1.32 0.31-1.66 0.2-0.34 0.53-0.51 0.99-0.51v0h20.53c0.453 0 0.783 0.17 0.99 0.51 0.2 0.34 0.3 0.893 0.3 1.66v0 1.32c0 0.767-0.1 1.32-0.3 1.66-0.207 0.34-0.537 0.51-0.99 0.51v0h-6.91v23.42c0 0.907-0.87 1.36-2.61 1.36v0zM99.17 0.07c-1.74 0-2.61-0.453-2.61-1.36v0-27.79c0-0.473 0.21-0.827 0.63-1.06 0.427-0.233 1.087-0.35 1.98-0.35v0h2.29c1.387 0 2.29 0.397 2.71 1.19v0l7.3 12.97 0.37 0.63 0.37-0.76 7.35-12.84c0.433-0.793 1.343-1.19 2.73-1.19v0h2.27c1.74 0 2.61 0.47 2.61 1.41v0 27.79c0 0.907-0.87 1.36-2.61 1.36v0h-1.27c-1.74 0-2.61-0.453-2.61-1.36v0-18l-0.17-0.05-6.3 11.26c-0.373 0.553-0.95 0.83-1.73 0.83v0h-1.25c-0.407 0-0.747-0.07-1.02-0.21-0.28-0.14-0.517-0.347-0.71-0.62v0l-6.33-11.26-0.17 0.05v18c0 0.907-0.86 1.36-2.58 1.36v0zM132.79 0.07c-1.773 0-2.66-0.317-2.66-0.95v0c0-0.18 0.057-0.44 0.17-0.78v0l9.57-27.91c0.227-0.613 1.047-0.92 2.46-0.92v0h2.25c1.413 0 2.237 0.307 2.47 0.92v0l9.57 27.91c0.08 0.327 0.12 0.587 0.12 0.78v0c0 0.327-0.177 0.567-0.53 0.72-0.347 0.153-0.893 0.23-1.64 0.23v0h-1.91c-0.68 0-1.23-0.067-1.65-0.2-0.413-0.14-0.67-0.373-0.77-0.7v0l-1.75-5.3h-10.23l-1.76 5.3c-0.18 0.6-0.847 0.9-2 0.9v0zM140.11-11.87h6.52l-2.46-7.71c-0.147-0.393-0.273-0.84-0.38-1.34-0.107-0.507-0.2-0.987-0.28-1.44v0h-0.18l-0.09 0.53c-0.167 0.96-0.353 1.71-0.56 2.25v0zM162.35 0.07c-1.74 0-2.61-0.453-2.61-1.36v0-27.79c0-0.473 0.213-0.827 0.64-1.06 0.42-0.233 1.077-0.35 1.97-0.35v0h1.86c0.7 0 1.277 0.08 1.73 0.24 0.46 0.167 0.837 0.483 1.13 0.95v0l10.25 15.8 1.17 1.76v-17.34c0-0.473 0.213-0.827 0.64-1.06 0.42-0.233 1.077-0.35 1.97-0.35v0h1.25c0.893 0 1.547 0.117 1.96 0.35 0.42 0.233 0.63 0.587 0.63 1.06v0 27.79c0 0.907-0.863 1.36-2.59 1.36v0h-1.66c-0.72 0-1.297-0.077-1.73-0.23-0.44-0.153-0.807-0.457-1.1-0.91v0l-10.75-16.43-0.92-1.37v17.58c0 0.907-0.863 1.36-2.59 1.36v0zM193.55 0.07c-1.74 0-2.61-0.453-2.61-1.36v0-27.79c0-0.473 0.213-0.827 0.64-1.06 0.42-0.233 1.077-0.35 1.97-0.35v0h1.86c0.7 0 1.277 0.08 1.73 0.24 0.46 0.167 0.837 0.483 1.13 0.95v0l10.25 15.8 1.17 1.76v-17.34c0-0.473 0.213-0.827 0.64-1.06 0.42-0.233 1.077-0.35 1.97-0.35v0h1.25c0.893 0 1.55 0.117 1.97 0.35 0.413 0.233 0.62 0.587 0.62 1.06v0 27.79c0 0.907-0.863 1.36-2.59 1.36v0h-1.66c-0.713 0-1.29-0.077-1.73-0.23-0.44-0.153-0.807-0.457-1.1-0.91v0l-10.74-16.43-0.93-1.37v17.58c0 0.907-0.863 1.36-2.59 1.36v0z" fill="#ff4057" fill-rule="nonzero" stroke="none" stroke-width="1" stroke-linecap="butt" stroke-linejoin="miter" stroke-miterlimit="10" stroke-dasharray="" stroke-dashoffset="0" font-family="none" font-weight="none" font-size="none" text-anchor="none" style="mix-blend-mode: normal" data-fill-palette-color="primary" opacity="1"></path></g></svg></g></svg></g></svg></g></svg></g><g transform="matrix(1,0,0,1,0,0.3164341223367657)"><svg viewBox="0 0 109.27022828884853 126.5736489347079" height="126.5736489347079" width="109.27022828884853"><g><svg xmlns="http://www.w3.org/2000/svg" xmlns:xlink="http://www.w3.org/1999/xlink" version="1.1" x="0" y="0" viewBox="9.638 3.247 80.72399999999999 93.507" enable-background="new 0 0 100 100" xml:space="preserve" height="126.5736489347079" width="109.27022828884853" class="icon-icon-0" data-fill-palette-color="accent" id="icon-0"><g fill="#dcdcdc" data-fill-palette-color="accent"><g fill="#dcdcdc" data-fill-palette-color="accent"><polygon points="36.703,11.011 9.638,26.636 9.638,38.757 36.703,23.131 63.767,38.757 63.767,26.636   " fill="#dcdcdc" data-fill-palette-color="accent"></polygon></g><g fill="#dcdcdc" data-fill-palette-color="accent"><polygon points="63.298,89.092 36.233,73.467 36.233,61.348 63.298,76.973 90.362,61.348 90.362,73.467   " fill="#dcdcdc" data-fill-palette-color="accent"></polygon></g><g fill="#dcdcdc" data-fill-palette-color="accent"><polygon points="9.638,42.012 36.703,26.386 47.198,32.446 20.134,48.072 20.134,79.324 9.638,73.264   " fill="#dcdcdc" data-fill-palette-color="accent"></polygon></g><g fill="#dcdcdc" data-fill-palette-color="accent"><polygon points="77.083,18.872 50.018,3.247 39.522,9.307 66.586,24.932 66.586,56.184 77.083,50.124   " fill="#dcdcdc" data-fill-palette-color="accent"></polygon></g><g fill="#dcdcdc" data-fill-palette-color="accent"><polygon points="23.01,81.127 23.011,49.876 33.507,43.816 33.507,75.068 60.571,90.693 50.075,96.754   " fill="#dcdcdc" data-fill-palette-color="accent"></polygon></g><g fill="#dcdcdc" data-fill-palette-color="accent"><polygon points="90.362,58.092 90.362,26.84 79.866,20.78 79.866,52.031 52.802,67.658 63.298,73.719   " fill="#dcdcdc" data-fill-palette-color="accent"></polygon></g></g></svg></g></svg></g></svg></g><defs></defs></svg><rect width="395.52" height="93.6489888901136" fill="none" stroke="none" visibility="hidden"></rect></g></svg></g></svg>